$MeshFormat
2.2 0 8
$EndMeshFormat
$PhysicalNames
3
2 1 "hot"
2 2 "cold"
3 1 "fluid"
$EndPhysicalNames
$Nodes
384
1 -0.2886751346 -0.2886751346 -0.2886751346
2 -0.5773502692 -0.5773502692 -0.5773502692
3 -0.2886751346 -0.2886751346 0.2886751346
4 -0.5773502692 -0.5773502692 0.5773502692
5 -0.2886751346 0.2886751346 -0.2886751346
6 -0.5773502692 0.5773502692 -0.5773502692
7 -0.2886751346 0.2886751346 0.2886751346
8 -0.5773502692 0.5773502692 0.5773502692
9 0.2886751346 -0.2886751346 -0.2886751346
10 0.5773502692 -0.5773502692 -0.5773502692
11 0.2886751346 -0.2886751346 0.2886751346
12 0.5773502692 -0.5773502692 0.5773502692
13 0.2886751346 0.2886751346 -0.2886751346
14 0.5773502692 0.5773502692 -0.5773502692
15 0.2886751346 0.2886751346 0.2886751346
16 0.5773502692 0.5773502692 0.5773502692
17 -0.101861855419662 -0.3461388178314072 -0.3461388178314072
18 0.101861856580922 -0.3461388176605392 -0.3461388176605392
19 -0.1994513038214564 -0.3242060898663883 -0.3242060898663883
20 8.924098127138791e-10 -0.3535533905996266 -0.3535533905996266
21 0.1994513043727572 -0.3242060896968085 -0.3242060896968085
22 -0.2037237108393239 -0.6922776356628143 -0.6922776356628143
23 0.203723713161844 -0.6922776353210784 -0.6922776353210784
24 -0.3989026076429128 -0.6484121797327767 -0.6484121797327767
25 1.784819625427758e-09 -0.7071067811992532 -0.7071067811992532
26 0.3989026087455144 -0.6484121793936169 -0.6484121793936169
27 -0.101861855419662 -0.3461388178314072 0.3461388178314072
28 0.101861856580922 -0.3461388176605392 0.3461388176605392
29 -0.1994513038214564 -0.3242060898663883 0.3242060898663883
30 8.924098127138791e-10 -0.3535533905996266 0.3535533905996266
31 0.1994513043727572 -0.3242060896968085 0.3242060896968085
32 -0.2037237108393239 -0.6922776356628143 0.6922776356628143
33 0.203723713161844 -0.6922776353210784 0.6922776353210784
34 -0.3989026076429128 -0.6484121797327767 0.6484121797327767
35 1.784819625427758e-09 -0.7071067811992532 0.7071067811992532
36 0.3989026087455144 -0.6484121793936169 0.6484121793936169
37 -0.101861855419662 0.3461388178314072 -0.3461388178314072
38 0.101861856580922 0.3461388176605392 -0.3461388176605392
39 -0.1994513038214564 0.3242060898663883 -0.3242060898663883
40 8.924098127138791e-10 0.3535533905996266 -0.3535533905996266
41 0.1994513043727572 0.3242060896968085 -0.3242060896968085
42 -0.2037237108393239 0.6922776356628143 -0.6922776356628143
43 0.203723713161844 0.6922776353210784 -0.6922776353210784
44 -0.3989026076429128 0.6484121797327767 -0.6484121797327767
45 1.784819625427758e-09 0.7071067811992532 -0.7071067811992532
46 0.3989026087455144 0.6484121793936169 -0.6484121793936169
47 -0.101861855419662 0.3461388178314072 0.3461388178314072
48 0.101861856580922 0.3461388176605392 0.3461388176605392
49 -0.1994513038214564 0.3242060898663883 0.3242060898663883
50 8.924098127138791e-10 0.3535533905996266 0.3535533905996266
51 0.1994513043727572 0.3242060896968085 0.3242060896968085
52 -0.2037237108393239 0.6922776356628143 0.6922776356628143
53 0.203723713161844 0.6922776353210784 0.6922776353210784
54 -0.3989026076429128 0.6484121797327767 0.6484121797327767
55 1.784819625427758e-09 0.7071067811992532 0.7071067811992532
56 0.3989026087455144 0.6484121793936169 0.6484121793936169
57 -0.3461388178314072 -0.101861855419662 -0.3461388178314072
58 -0.3461388176605392 0.101861856580922 -0.3461388176605392
59 -0.3242060898663883 -0.1994513038214564 -0.3242060898663883
60 -0.3535533905996266 8.924098127138791e-10 -0.3535533905996266
61 -0.3242060896968085 0.1994513043727572 -0.3242060896968085
62 -0.6922776356628143 -0.2037237108393239 -0.6922776356628143
63 -0.6922776353210784 0.203723713161844 -0.6922776353210784
64 -0.6484121797327767 -0.3989026076429128 -0.6484121797327767
65 -0.7071067811992532 1.784819625427758e-09 -0.7071067811992532
66 -0.6484121793936169 0.3989026087455144 -0.6484121793936169
67 -0.3461388178314072 -0.101861855419662 0.3461388178314072
68 -0.3461388176605392 0.101861856580922 0.3461388176605392
69 -0.3242060898663883 -0.1994513038214564 0.3242060898663883
70 -0.3535533905996266 8.924098127138791e-10 0.3535533905996266
71 -0.3242060896968085 0.1994513043727572 0.3242060896968085
72 -0.6922776356628143 -0.2037237108393239 0.6922776356628143
73 -0.6922776353210784 0.203723713161844 0.6922776353210784
74 -0.6484121797327767 -0.3989026076429128 0.6484121797327767
75 -0.7071067811992532 1.784819625427758e-09 0.7071067811992532
76 -0.6484121793936169 0.3989026087455144 0.6484121793936169
77 0.3461388178314072 -0.101861855419662 -0.3461388178314072
78 0.3461388176605392 0.101861856580922 -0.3461388176605392
79 0.3242060898663883 -0.1994513038214564 -0.3242060898663883
80 0.3535533905996266 8.924098127138791e-10 -0.3535533905996266
81 0.3242060896968085 0.1994513043727572 -0.3242060896968085
82 0.6922776356628143 -0.2037237108393239 -0.6922776356628143
83 0.6922776353210784 0.203723713161844 -0.6922776353210784
84 0.6484121797327767 -0.3989026076429128 -0.6484121797327767
85 0.7071067811992532 1.784819625427758e-09 -0.7071067811992532
86 0.6484121793936169 0.3989026087455144 -0.6484121793936169
87 0.3461388178314072 -0.101861855419662 0.3461388178314072
88 0.3461388176605392 0.101861856580922 0.3461388176605392
89 0.3242060898663883 -0.1994513038214564 0.3242060898663883
90 0.3535533905996266 8.924098127138791e-10 0.3535533905996266
91 0.3242060896968085 0.1994513043727572 0.3242060896968085
92 0.6922776356628143 -0.2037237108393239 0.6922776356628143
93 0.6922776353210784 0.203723713161844 0.6922776353210784
94 0.6484121797327767 -0.3989026076429128 0.6484121797327767
95 0.7071067811992532 1.784819625427758e-09 0.7071067811992532
96 0.6484121793936169 0.3989026087455144 0.6484121793936169
97 -0.3461388178314072 -0.3461388178314072 -0.101861855419662
98 -0.3461388176605392 -0.3461388176605392 0.101861856580922
99 -0.3242060898663883 -0.3242060898663883 -0.1994513038214564
100 -0.3535533905996266 -0.3535533905996266 8.924098127138791e-10
101 -0.3242060896968085 -0.3242060896968085 0.1994513043727572
102 -0.6922776356628143 -0.6922776356628143 -0.2037237108393239
103 -0.6922776353210784 -0.6922776353210784 0.203723713161844
104 -0.6484121797327767 -0.6484121797327767 -0.3989026076429128
105 -0.7071067811992532 -0.7071067811992532 1.784819625427758e-09
106 -0.6484121793936169 -0.6484121793936169 0.3989026087455144
107 -0.3461388178314072 0.3461388178314072 -0.101861855419662
108 -0.3461388176605392 0.3461388176605392 0.101861856580922
109 -0.3242060898663883 0.3242060898663883 -0.1994513038214564
110 -0.3535533905996266 0.3535533905996266 8.924098127138791e-10
111 -0.3242060896968085 0.3242060896968085 0.1994513043727572
112 -0.6922776356628143 0.6922776356628143 -0.2037237108393239
113 -0.6922776353210784 0.6922776353210784 0.203723713161844
114 -0.6484121797327767 0.6484121797327767 -0.3989026076429128
115 -0.7071067811992532 0.7071067811992532 1.784819625427758e-09
116 -0.6484121793936169 0.6484121793936169 0.3989026087455144
117 0.3461388178314072 -0.3461388178314072 -0.101861855419662
118 0.3461388176605392 -0.3461388176605392 0.101861856580922
119 0.3242060898663883 -0.3242060898663883 -0.1994513038214564
120 0.3535533905996266 -0.3535533905996266 8.924098127138791e-10
121 0.3242060896968085 -0.3242060896968085 0.1994513043727572
122 0.6922776356628143 -0.6922776356628143 -0.2037237108393239
123 0.6922776353210784 -0.6922776353210784 0.203723713161844
124 0.6484121797327767 -0.6484121797327767 -0.3989026076429128
125 0.7071067811992532 -0.7071067811992532 1.784819625427758e-09
126 0.6484121793936169 -0.6484121793936169 0.3989026087455144
127 0.3461388178314072 0.3461388178314072 -0.101861855419662
128 0.3461388176605392 0.3461388176605392 0.101861856580922
129 0.3242060898663883 0.3242060898663883 -0.1994513038214564
130 0.3535533905996266 0.3535533905996266 8.924098127138791e-10
131 0.3242060896968085 0.3242060896968085 0.1994513043727572
132 0.6922776356628143 0.6922776356628143 -0.2037237108393239
133 0.6922776353210784 0.6922776353210784 0.203723713161844
134 0.6484121797327767 0.6484121797327767 -0.3989026076429128
135 0.7071067811992532 0.7071067811992532 1.784819625427758e-09
136 0.6484121793936169 0.6484121793936169 0.3989026087455144
137 -0.4330127018996873 -0.4330127018996873 -0.4330127018996873
138 -0.4330127018996873 -0.4330127018996873 0.4330127018996873
139 -0.4330127018996873 0.4330127018996873 -0.4330127018996873
140 -0.4330127018996873 0.4330127018996873 0.4330127018996873
141 0.4330127018996873 -0.4330127018996873 -0.4330127018996873
142 0.4330127018996873 -0.4330127018996873 0.4330127018996873
143 0.4330127018996873 0.4330127018996873 -0.4330127018996873
144 0.4330127018996873 0.4330127018996873 0.4330127018996873
145 -0.4603246100784519 -0.1380240076311103 -0.1380240076311102
146 -0.4603246096644571 -0.1380240075004506 0.1380240091424863
147 -0.460324609664457 0.1380240091424864 -0.1380240075004506
148 -0.4603246092504622 0.1380240090118266 0.1380240090118267
149 -0.4153847783408097 -0.1235576491434374 -0.249377210807018
150 -0.4153847782091787 -0.2493772109823016 -0.1235576492321877
151 -0.478934156055236 -0.1436038793788079 6.702949870120409e-10
152 -0.4153847780294963 -0.2493772107608544 0.1235576502832052
153 -0.4153847780075084 -0.123557649264798 0.2493772113020643
154 -0.4153847780108359 0.123557650493539 -0.2493772106877238
155 -0.4789341559997061 6.347360666018473e-10 -0.143603879564006
156 -0.4789341556304779 0.1436038807954209 7.913981260017526e-10
157 -0.4789341556469465 5.236823252434955e-10 0.1436038807404965
158 -0.4153847777097501 0.1235576503249368 0.2493772112727755
159 -0.4153847780578502 0.2493772112871581 -0.1235576491256408
160 -0.4153847776042292 0.2493772113655262 0.1235576504924849
161 -0.9206492201569039 -0.2760480152622205 -0.2760480152622204
162 -0.9206492193289142 -0.2760480150009013 0.2760480182849726
163 -0.9206492193289141 0.2760480182849727 -0.2760480150009011
164 -0.9206492185009244 0.2760480180236531 0.2760480180236534
165 -0.8307693870533429 -0.247115092816275 -0.4987548059651697
166 -0.8307693868855084 -0.4987548061855173 -0.2471150929357834
167 -0.9578682978698454 -0.2872078062516105 1.206028388444998e-09
168 -0.830769386421898 -0.4987548058615507 0.2471150951482473
169 -0.8307693864873757 -0.2471150924287601 0.4987548070998934
170 -0.8307693863961366 0.2471150951124334 -0.4987548059222056
171 -0.9578682979413398 1.078194273795562e-09 -0.287207806013169
172 -0.9578682971570579 0.2872078086288316 1.307777520547116e-09
173 -0.957868297205027 1.284613813095802e-09 0.2872078084688499
174 -0.8307693860357735 0.2471150947882632 0.4987548066830723
175 -0.8307693864111627 0.4987548070961704 -0.2471150926924929
176 -0.8307693857005338 0.4987548069825679 0.2471150953108217
177 -0.5192082267471106 -0.1527927831294929 -0.5192082267471106
178 -0.5192082264908089 0.152792784871383 -0.5192082264908089
179 -0.5192082267471106 0.5192082267471106 -0.1527927831294929
180 -0.5192082264908089 0.5192082264908089 0.152792784871383
181 -0.5192082267471106 -0.1527927831294929 0.5192082267471106
182 -0.5192082264908089 0.152792784871383 0.5192082264908089
183 -0.5192082267471106 -0.5192082267471106 -0.1527927831294929
184 -0.5192082264908089 -0.5192082264908089 0.152792784871383
185 0.4603246100784519 -0.1380240076311103 -0.1380240076311102
186 0.4603246096644571 -0.1380240075004506 0.1380240091424863
187 0.460324609664457 0.1380240091424864 -0.1380240075004506
188 0.4603246092504622 0.1380240090118266 0.1380240090118267
189 0.4153847783408097 -0.1235576491434374 -0.249377210807018
190 0.4153847782091787 -0.2493772109823016 -0.1235576492321877
191 0.478934156055236 -0.1436038793788079 6.702949870120409e-10
192 0.4153847780294963 -0.2493772107608544 0.1235576502832052
193 0.4153847780075084 -0.123557649264798 0.2493772113020643
194 0.4153847780108359 0.123557650493539 -0.2493772106877238
195 0.4789341559997061 6.347360666018473e-10 -0.143603879564006
196 0.4789341556304779 0.1436038807954209 7.913981260017526e-10
197 0.4789341556469465 5.236823252434955e-10 0.1436038807404965
198 0.4153847777097501 0.1235576503249368 0.2493772112727755
199 0.4153847780578502 0.2493772112871581 -0.1235576491256408
200 0.4153847776042292 0.2493772113655262 0.1235576504924849
201 0.9206492201569039 -0.2760480152622205 -0.2760480152622204
202 0.9206492193289142 -0.2760480150009013 0.2760480182849726
203 0.9206492193289141 0.2760480182849727 -0.2760480150009011
204 0.9206492185009244 0.2760480180236531 0.2760480180236534
205 0.8307693870533429 -0.247115092816275 -0.4987548059651697
206 0.8307693868855084 -0.4987548061855173 -0.2471150929357834
207 0.9578682978698454 -0.2872078062516105 1.206028388444998e-09
208 0.830769386421898 -0.4987548058615507 0.2471150951482473
209 0.8307693864873757 -0.2471150924287601 0.4987548070998934
210 0.8307693863961366 0.2471150951124334 -0.4987548059222056
211 0.9578682979413398 1.078194273795562e-09 -0.287207806013169
212 0.9578682971570579 0.2872078086288316 1.307777520547116e-09
213 0.957868297205027 1.284613813095802e-09 0.2872078084688499
214 0.8307693860357735 0.2471150947882632 0.4987548066830723
215 0.8307693864111627 0.4987548070961704 -0.2471150926924929
216 0.8307693857005338 0.4987548069825679 0.2471150953108217
217 0.5192082267471106 -0.1527927831294929 -0.5192082267471106
218 0.5192082264908089 0.152792784871383 -0.5192082264908089
219 0.5192082267471106 0.5192082267471106 -0.1527927831294929
220 0.5192082264908089 0.5192082264908089 0.152792784871383
221 0.5192082267471106 -0.1527927831294929 0.5192082267471106
222 0.5192082264908089 0.152792784871383 0.5192082264908089
223 0.5192082267471106 -0.5192082267471106 -0.1527927831294929
224 0.5192082264908089 -0.5192082264908089 0.152792784871383
225 -0.1380240076311103 -0.4603246100784519 -0.1380240076311102
226 -0.1380240075004506 -0.4603246096644571 0.1380240091424863
227 0.1380240091424864 -0.460324609664457 -0.1380240075004506
228 0.1380240090118266 -0.4603246092504622 0.1380240090118267
229 -0.1247648639719649 -0.4149540542947681 -0.2494932094293872
230 -0.2517769950615885 -0.4137916855694504 -0.1240354212325426
231 -0.1438693365537274 -0.4788544810363318 8.199720939996062e-10
232 -0.2517769948850577 -0.4137916853013545 0.1240354224852675
233 -0.1247648638617356 -0.4149540540066375 0.2494932099637252
234 0.1247648651956099 -0.4149540539828936 -0.2494932093361811
235 5.387275429681128e-10 -0.4789341489153273 -0.1436039031911579
236 0.1438693381167096 -0.4788544805667419 8.199721258729456e-10
237 6.166662068739494e-10 -0.4789341485919245 0.1436039042697402
238 0.1247648650857996 -0.4149540536782249 0.2494932098978155
239 0.2517769955383473 -0.4137916852928512 -0.124035421187536
240 0.251776995276573 -0.4137916851005713 0.1240354223603664
241 -0.2760480152622205 -0.9206492201569039 -0.2760480152622204
242 -0.2760480150009013 -0.9206492193289142 0.2760480182849726
243 0.2760480182849727 -0.9206492193289141 -0.2760480150009011
244 0.2760480180236531 -0.9206492185009244 0.2760480180236534
245 -0.2499699514486532 -0.8306064773339442 -0.4976021535520032
246 -0.5079000844118083 -0.8253454226143864 -0.2466625988266063
247 -0.2877386731074548 -0.9577089620726636 1.639944187999212e-09
248 -0.5079000840154068 -0.825345422074399 0.2466626014496572
249 -0.2499699508143132 -0.8306064761133812 0.497602155908049
250 0.2499699539365662 -0.8306064768169815 -0.497602153165126
251 1.207018580526552e-09 -0.9578682978176796 -0.2872078064255887
252 0.2877386762334191 -0.9577089611334838 1.639944251745891e-09
253 1.193947355204656e-09 -0.957868297106212 0.2872078087984079
254 0.2499699533574954 -0.8306064756461663 0.4976021554103675
255 0.507900085516988 -0.8253454219859951 -0.2466625986535726
256 0.5079000850083586 -0.8253454215340729 0.2466626012130397
257 -0.1527927831294929 -0.5192082267471106 -0.5192082267471106
258 0.152792784871383 -0.5192082264908089 -0.5192082264908089
259 -0.1527927831294929 -0.5192082267471106 0.5192082267471106
260 0.152792784871383 -0.5192082264908089 0.5192082264908089
261 -0.1380240076311103 0.4603246100784519 -0.1380240076311102
262 -0.1380240075004506 0.4603246096644571 0.1380240091424863
263 0.1380240091424864 0.460324609664457 -0.1380240075004506
264 0.1380240090118266 0.4603246092504622 0.1380240090118267
265 -0.1247648639719649 0.4149540542947681 -0.2494932094293872
266 -0.2517769950615885 0.4137916855694504 -0.1240354212325426
267 -0.1438693365537274 0.4788544810363318 8.199720939996062e-10
268 -0.2517769948850577 0.4137916853013545 0.1240354224852675
269 -0.1247648638617356 0.4149540540066375 0.2494932099637252
270 0.1247648651956099 0.4149540539828936 -0.2494932093361811
271 5.387275429681128e-10 0.4789341489153273 -0.1436039031911579
272 0.1438693381167096 0.4788544805667419 8.199721258729456e-10
273 6.166662068739494e-10 0.4789341485919245 0.1436039042697402
274 0.1247648650857996 0.4149540536782249 0.2494932098978155
275 0.2517769955383473 0.4137916852928512 -0.124035421187536
276 0.251776995276573 0.4137916851005713 0.1240354223603664
277 -0.2760480152622205 0.9206492201569039 -0.2760480152622204
278 -0.2760480150009013 0.9206492193289142 0.2760480182849726
279 0.2760480182849727 0.9206492193289141 -0.2760480150009011
280 0.2760480180236531 0.9206492185009244 0.2760480180236534
281 -0.2499699514486532 0.8306064773339442 -0.4976021535520032
282 -0.5079000844118083 0.8253454226143864 -0.2466625988266063
283 -0.2877386731074548 0.9577089620726636 1.639944187999212e-09
284 -0.5079000840154068 0.825345422074399 0.2466626014496572
285 -0.2499699508143132 0.8306064761133812 0.497602155908049
286 0.2499699539365662 0.8306064768169815 -0.497602153165126
287 1.207018580526552e-09 0.9578682978176796 -0.2872078064255887
288 0.2877386762334191 0.9577089611334838 1.639944251745891e-09
289 1.193947355204656e-09 0.957868297106212 0.2872078087984079
290 0.2499699533574954 0.8306064756461663 0.4976021554103675
291 0.507900085516988 0.8253454219859951 -0.2466625986535726
292 0.5079000850083586 0.8253454215340729 0.2466626012130397
293 -0.1527927831294929 0.5192082267471106 -0.5192082267471106
294 0.152792784871383 0.5192082264908089 -0.5192082264908089
295 -0.1527927831294929 0.5192082267471106 0.5192082267471106
296 0.152792784871383 0.5192082264908089 0.5192082264908089
297 -0.1380240076311103 -0.1380240076311103 -0.4603246100784519
298 -0.1380240075004507 0.1380240091424862 -0.4603246096644571
299 0.1380240091424863 -0.1380240075004507 -0.460324609664457
300 0.1380240090118267 0.1380240090118266 -0.4603246092504623
301 -0.1247648638558597 -0.2494932093413512 -0.4149540543826097
302 -0.251776995097156 -0.1240354213437359 -0.4137916855144784
303 -0.1438693365537274 8.199720454947537e-10 -0.4788544810363318
304 -0.2517769948704748 0.1240354224770041 -0.4137916853127045
305 -0.1247648638533748 0.2494932099899896 -0.4149540539933598
306 0.1247648652970684 -0.2494932092178856 -0.4149540540235137
307 6.119633484050408e-10 -0.1436039030030139 -0.4789341489717405
308 0.1438693381167096 8.199720207790983e-10 -0.4788544805667419
309 6.258820904797675e-10 0.1436039044520312 -0.4789341485372662
310 0.1247648650738857 0.2494932099352407 -0.414954053659305
311 0.2517769955219357 -0.1240354211927952 -0.4137916853012605
312 0.2517769952574603 0.1240354223317409 -0.4137916851207813
313 -0.2760480152622205 -0.2760480152622205 -0.9206492201569039
314 -0.2760480150009013 0.2760480182849723 -0.9206492193289142
315 0.2760480182849727 -0.2760480150009013 -0.9206492193289141
316 0.2760480180236533 0.2760480180236533 -0.9206492185009246
317 -0.249969951129998 -0.4976021535555121 -0.8306064774277409
318 -0.5079000845289167 -0.2466625989094767 -0.8253454225175537
319 -0.2877386731074548 1.639944058652939e-09 -0.9577089620726636
320 -0.5079000840170861 0.2466626014307904 -0.8253454220790041
321 -0.2499699508155182 0.4976021559042551 -0.8306064761152915
322 0.2499699541874269 -0.4976021528179491 -0.8306064769494731
323 1.221576217435143e-09 -0.287207805903193 -0.9578682979743149
324 0.2877386762334193 1.639944041558197e-09 -0.9577089611334838
325 1.232175656104707e-09 0.2872078088323722 -0.9578682970960282
326 0.2499699533578973 0.4976021554091014 -0.8306064756468038
327 0.5079000855264175 -0.2466625986550317 -0.8253454219797562
328 0.5079000849920595 0.2466626011865475 -0.8253454215520205
329 -0.1380240076311103 -0.1380240076311103 0.4603246100784519
330 -0.1380240075004507 0.1380240091424862 0.4603246096644571
331 0.1380240091424863 -0.1380240075004507 0.460324609664457
332 0.1380240090118267 0.1380240090118266 0.4603246092504623
333 -0.1247648638558597 -0.2494932093413512 0.4149540543826097
334 -0.251776995097156 -0.1240354213437359 0.4137916855144784
335 -0.1438693365537274 8.199720454947537e-10 0.4788544810363318
336 -0.2517769948704748 0.1240354224770041 0.4137916853127045
337 -0.1247648638533748 0.2494932099899896 0.4149540539933598
338 0.1247648652970684 -0.2494932092178856 0.4149540540235137
339 6.119633484050408e-10 -0.1436039030030139 0.4789341489717405
340 0.1438693381167096 8.199720207790983e-10 0.4788544805667419
341 6.258820904797675e-10 0.1436039044520312 0.4789341485372662
342 0.1247648650738857 0.2494932099352407 0.414954053659305
343 0.2517769955219357 -0.1240354211927952 0.4137916853012605
344 0.2517769952574603 0.1240354223317409 0.4137916851207813
345 -0.2760480152622205 -0.2760480152622205 0.9206492201569039
346 -0.2760480150009013 0.2760480182849723 0.9206492193289142
347 0.2760480182849727 -0.2760480150009013 0.9206492193289141
348 0.2760480180236533 0.2760480180236533 0.9206492185009246
349 -0.249969951129998 -0.4976021535555121 0.8306064774277409
350 -0.5079000845289167 -0.2466625989094767 0.8253454225175537
351 -0.2877386731074548 1.639944058652939e-09 0.9577089620726636
352 -0.5079000840170861 0.2466626014307904 0.8253454220790041
353 -0.2499699508155182 0.4976021559042551 0.8306064761152915
354 0.2499699541874269 -0.4976021528179491 0.8306064769494731
355 1.221576217435143e-09 -0.287207805903193 0.9578682979743149
356 0.2877386762334193 1.639944041558197e-09 0.9577089611334838
357 1.232175656104707e-09 0.2872078088323722 0.9578682970960282
358 0.2499699533578973 0.4976021554091014 0.8306064756468038
359 0.5079000855264175 -0.2466625986550317 0.8253454219797562
360 0.5079000849920595 0.2466626011865475 0.8253454215520205
361 -0.6904869151176779 -0.2070360114466654 -0.2070360114466653
362 -0.6904869144966856 -0.2070360112506759 0.2070360137137294
363 -0.6904869144966855 0.2070360137137295 -0.2070360112506759
364 -0.6904869138756933 0.2070360135177399 0.2070360135177401
365 0.6904869151176779 -0.2070360114466654 -0.2070360114466653
366 0.6904869144966856 -0.2070360112506759 0.2070360137137294
367 0.6904869144966855 0.2070360137137295 -0.2070360112506759
368 0.6904869138756933 0.2070360135177399 0.2070360135177401
369 -0.2070360114466654 -0.6904869151176779 -0.2070360114466653
370 -0.2070360112506759 -0.6904869144966856 0.2070360137137294
371 0.2070360137137295 -0.6904869144966855 -0.2070360112506759
372 0.2070360135177399 -0.6904869138756933 0.2070360135177401
373 -0.2070360114466654 0.6904869151176779 -0.2070360114466653
374 -0.2070360112506759 0.6904869144966856 0.2070360137137294
375 0.2070360137137295 0.6904869144966855 -0.2070360112506759
376 0.2070360135177399 0.6904869138756933 0.2070360135177401
377 -0.2070360114466654 -0.2070360114466654 -0.6904869151176779
378 -0.207036011250676 0.2070360137137293 -0.6904869144966856
379 0.2070360137137295 -0.207036011250676 -0.6904869144966855
380 0.20703601351774 0.2070360135177399 -0.6904869138756935
381 -0.2070360114466654 -0.2070360114466654 0.6904869151176779
382 -0.207036011250676 0.2070360137137293 0.6904869144966856
383 0.2070360137137295 -0.207036011250676 0.6904869144966855
384 0.20703601351774 0.2070360135177399 0.6904869138756935
$EndNodes
$Elements
162
1 16 2 1 1 1 57 145 97 59 149 150 99
2 16 2 1 1 97 145 146 98 150 151 152 100
3 16 2 1 1 98 146 67 3 152 153 69 101
4 16 2 1 1 57 58 147 145 60 154 155 149
5 16 2 1 1 145 147 148 146 155 156 157 151
6 16 2 1 1 146 148 68 67 157 158 70 153
7 16 2 1 1 58 5 107 147 61 109 159 154
8 16 2 1 1 147 107 108 148 159 110 160 156
9 16 2 1 1 148 108 7 68 160 111 71 158
10 16 2 2 2 2 62 161 102 64 165 166 104
11 16 2 2 2 102 161 162 103 166 167 168 105
12 16 2 2 2 103 162 72 4 168 169 74 106
13 16 2 2 2 62 63 163 161 65 170 171 165
14 16 2 2 2 161 163 164 162 171 172 173 167
15 16 2 2 2 162 164 73 72 173 174 75 169
16 16 2 2 2 63 6 112 163 66 114 175 170
17 16 2 2 2 163 112 113 164 175 115 176 172
18 16 2 2 2 164 113 8 73 176 116 76 174
19 16 2 1 7 9 77 185 117 79 189 190 119
20 16 2 1 7 117 185 186 118 190 191 192 120
21 16 2 1 7 118 186 87 11 192 193 89 121
22 16 2 1 7 77 78 187 185 80 194 195 189
23 16 2 1 7 185 187 188 186 195 196 197 191
24 16 2 1 7 186 188 88 87 197 198 90 193
25 16 2 1 7 78 13 127 187 81 129 199 194
26 16 2 1 7 187 127 128 188 199 130 200 196
27 16 2 1 7 188 128 15 88 200 131 91 198
28 16 2 2 8 10 82 201 122 84 205 206 124
29 16 2 2 8 122 201 202 123 206 207 208 125
30 16 2 2 8 123 202 92 12 208 209 94 126
31 16 2 2 8 82 83 203 201 85 210 211 205
32 16 2 2 8 201 203 204 202 211 212 213 207
33 16 2 2 8 202 204 93 92 213 214 95 209
34 16 2 2 8 83 14 132 203 86 134 215 210
35 16 2 2 8 203 132 133 204 215 135 216 212
36 16 2 2 8 204 133 16 93 216 136 96 214
37 16 2 1 13 1 17 225 97 19 229 230 99
38 16 2 1 13 97 225 226 98 230 231 232 100
39 16 2 1 13 98 226 27 3 232 233 29 101
40 16 2 1 13 17 18 227 225 20 234 235 229
41 16 2 1 13 225 227 228 226 235 236 237 231
42 16 2 1 13 226 228 28 27 237 238 30 233
43 16 2 1 13 18 9 117 227 21 119 239 234
44 16 2 1 13 227 117 118 228 239 120 240 236
45 16 2 1 13 228 118 11 28 240 121 31 238
46 16 2 2 14 2 22 241 102 24 245 246 104
47 16 2 2 14 102 241 242 103 246 247 248 105
48 16 2 2 14 103 242 32 4 248 249 34 106
49 16 2 2 14 22 23 243 241 25 250 251 245
50 16 2 2 14 241 243 244 242 251 252 253 247
51 16 2 2 14 242 244 33 32 253 254 35 249
52 16 2 2 14 23 10 122 243 26 124 255 250
53 16 2 2 14 243 122 123 244 255 125 256 252
54 16 2 2 14 244 123 12 33 256 126 36 254
55 16 2 1 17 5 37 261 107 39 265 266 109
56 16 2 1 17 107 261 262 108 266 267 268 110
57 16 2 1 17 108 262 47 7 268 269 49 111
58 16 2 1 17 37 38 263 261 40 270 271 265
59 16 2 1 17 261 263 264 262 271 272 273 267
60 16 2 1 17 262 264 48 47 273 274 50 269
61 16 2 1 17 38 13 127 263 41 129 275 270
62 16 2 1 17 263 127 128 264 275 130 276 272
63 16 2 1 17 264 128 15 48 276 131 51 274
64 16 2 2 18 6 42 277 112 44 281 282 114
65 16 2 2 18 112 277 278 113 282 283 284 115
66 16 2 2 18 113 278 52 8 284 285 54 116
67 16 2 2 18 42 43 279 277 45 286 287 281
68 16 2 2 18 277 279 280 278 287 288 289 283
69 16 2 2 18 278 280 53 52 289 290 55 285
70 16 2 2 18 43 14 132 279 46 134 291 286
71 16 2 2 18 279 132 133 280 291 135 292 288
72 16 2 2 18 280 133 16 53 292 136 56 290
73 16 2 1 21 1 17 297 57 19 301 302 59
74 16 2 1 21 57 297 298 58 302 303 304 60
75 16 2 1 21 58 298 37 5 304 305 39 61
76 16 2 1 21 17 18 299 297 20 306 307 301
77 16 2 1 21 297 299 300 298 307 308 309 303
78 16 2 1 21 298 300 38 37 309 310 40 305
79 16 2 1 21 18 9 77 299 21 79 311 306
80 16 2 1 21 299 77 78 300 311 80 312 308
81 16 2 1 21 300 78 13 38 312 81 41 310
82 16 2 2 22 2 22 313 62 24 317 318 64
83 16 2 2 22 62 313 314 63 318 319 320 65
84 16 2 2 22 63 314 42 6 320 321 44 66
85 16 2 2 22 22 23 315 313 25 322 323 317
86 16 2 2 22 313 315 316 314 323 324 325 319
87 16 2 2 22 314 316 43 42 325 326 45 321
88 16 2 2 22 23 10 82 315 26 84 327 322
89 16 2 2 22 315 82 83 316 327 85 328 324
90 16 2 2 22 316 83 14 43 328 86 46 326
91 16 2 1 23 3 27 329 67 29 333 334 69
92 16 2 1 23 67 329 330 68 334 335 336 70
93 16 2 1 23 68 330 47 7 336 337 49 71
94 16 2 1 23 27 28 331 329 30 338 339 333
95 16 2 1 23 329 331 332 330 339 340 341 335
96 16 2 1 23 330 332 48 47 341 342 50 337
97 16 2 1 23 28 11 87 331 31 89 343 338
98 16 2 1 23 331 87 88 332 343 90 344 340
99 16 2 1 23 332 88 15 48 344 91 51 342
100 16 2 2 24 4 32 345 72 34 349 350 74
101 16 2 2 24 72 345 346 73 350 351 352 75
102 16 2 2 24 73 346 52 8 352 353 54 76
103 16 2 2 24 32 33 347 345 35 354 355 349
104 16 2 2 24 345 347 348 346 355 356 357 351
105 16 2 2 24 346 348 53 52 357 358 55 353
106 16 2 2 24 33 12 92 347 36 94 359 354
107 16 2 2 24 347 92 93 348 359 95 360 356
108 16 2 2 24 348 93 16 53 360 96 56 358
109 17 2 1 1 145 57 1 97 161 62 2 102 149 150 361 59 177 99 137 183 165 166 64 104
110 17 2 1 1 146 145 97 98 162 161 102 103 151 152 362 150 361 100 183 184 167 168 166 105
111 17 2 1 1 67 146 98 3 72 162 103 4 153 69 181 152 362 101 184 138 169 74 168 106
112 17 2 1 1 147 58 57 145 163 63 62 161 154 155 363 60 178 149 177 361 170 171 65 165
113 17 2 1 1 148 147 145 146 164 163 161 162 156 157 364 155 363 151 361 362 172 173 171 167
114 17 2 1 1 68 148 146 67 73 164 162 72 158 70 182 157 364 153 362 181 174 75 173 169
115 17 2 1 1 107 5 58 147 112 6 63 163 109 159 179 61 139 154 178 363 114 175 66 170
116 17 2 1 1 108 107 147 148 113 112 163 164 110 160 180 159 179 156 363 364 115 176 175 172
117 17 2 1 1 7 108 148 68 8 113 164 73 111 71 140 160 180 158 364 182 116 76 176 174
118 17 2 1 7 9 77 185 117 10 82 201 122 79 119 141 189 217 190 365 223 84 124 205 206
119 17 2 1 7 117 185 186 118 122 201 202 123 190 120 223 191 365 192 366 224 206 125 207 208
120 17 2 1 7 118 186 87 11 123 202 92 12 192 121 224 193 366 89 221 142 208 126 209 94
121 17 2 1 7 77 78 187 185 82 83 203 201 80 189 217 194 218 195 367 365 85 205 210 211
122 17 2 1 7 185 187 188 186 201 203 204 202 195 191 365 196 367 197 368 366 211 207 212 213
123 17 2 1 7 186 188 88 87 202 204 93 92 197 193 366 198 368 90 222 221 213 209 214 95
124 17 2 1 7 78 13 127 187 83 14 132 203 81 194 218 129 143 199 219 367 86 210 134 215
125 17 2 1 7 187 127 128 188 203 132 133 204 199 196 367 130 219 200 220 368 215 212 135 216
126 17 2 1 7 188 128 15 88 204 133 16 93 200 198 368 131 220 91 144 222 216 214 136 96
127 17 2 1 13 1 17 225 97 2 22 241 102 19 99 137 229 257 230 369 183 24 104 245 246
128 17 2 1 13 97 225 226 98 102 241 242 103 230 100 183 231 369 232 370 184 246 105 247 248
129 17 2 1 13 98 226 27 3 103 242 32 4 232 101 184 233 370 29 259 138 248 106 249 34
130 17 2 1 13 17 18 227 225 22 23 243 241 20 229 257 234 258 235 371 369 25 245 250 251
131 17 2 1 13 225 227 228 226 241 243 244 242 235 231 369 236 371 237 372 370 251 247 252 253
132 17 2 1 13 226 228 28 27 242 244 33 32 237 233 370 238 372 30 260 259 253 249 254 35
133 17 2 1 13 18 9 117 227 23 10 122 243 21 234 258 119 141 239 223 371 26 250 124 255
134 17 2 1 13 227 117 118 228 243 122 123 244 239 236 371 120 223 240 224 372 255 252 125 256
135 17 2 1 13 228 118 11 28 244 123 12 33 240 238 372 121 224 31 142 260 256 254 126 36
136 17 2 1 17 261 37 5 107 277 42 6 112 265 266 373 39 293 109 139 179 281 282 44 114
137 17 2 1 17 262 261 107 108 278 277 112 113 267 268 374 266 373 110 179 180 283 284 282 115
138 17 2 1 17 47 262 108 7 52 278 113 8 269 49 295 268 374 111 180 140 285 54 284 116
139 17 2 1 17 263 38 37 261 279 43 42 277 270 271 375 40 294 265 293 373 286 287 45 281
140 17 2 1 17 264 263 261 262 280 279 277 278 272 273 376 271 375 267 373 374 288 289 287 283
141 17 2 1 17 48 264 262 47 53 280 278 52 274 50 296 273 376 269 374 295 290 55 289 285
142 17 2 1 17 127 13 38 263 132 14 43 279 129 275 219 41 143 270 294 375 134 291 46 286
143 17 2 1 17 128 127 263 264 133 132 279 280 130 276 220 275 219 272 375 376 135 292 291 288
144 17 2 1 17 15 128 264 48 16 133 280 53 131 51 144 276 220 274 376 296 136 56 292 290
145 17 2 1 21 297 17 1 57 313 22 2 62 301 302 377 19 257 59 137 177 317 318 24 64
146 17 2 1 21 298 297 57 58 314 313 62 63 303 304 378 302 377 60 177 178 319 320 318 65
147 17 2 1 21 37 298 58 5 42 314 63 6 305 39 293 304 378 61 178 139 321 44 320 66
148 17 2 1 21 299 18 17 297 315 23 22 313 306 307 379 20 258 301 257 377 322 323 25 317
149 17 2 1 21 300 299 297 298 316 315 313 314 308 309 380 307 379 303 377 378 324 325 323 319
150 17 2 1 21 38 300 298 37 43 316 314 42 310 40 294 309 380 305 378 293 326 45 325 321
151 17 2 1 21 77 9 18 299 82 10 23 315 79 311 217 21 141 306 258 379 84 327 26 322
152 17 2 1 21 78 77 299 300 83 82 315 316 80 312 218 311 217 308 379 380 85 328 327 324
153 17 2 1 21 13 78 300 38 14 83 316 43 81 41 143 312 218 310 380 294 86 46 328 326
154 17 2 1 23 3 27 329 67 4 32 345 72 29 69 138 333 259 334 381 181 34 74 349 350
155 17 2 1 23 67 329 330 68 72 345 346 73 334 70 181 335 381 336 382 182 350 75 351 352
156 17 2 1 23 68 330 47 7 73 346 52 8 336 71 182 337 382 49 295 140 352 76 353 54
157 17 2 1 23 27 28 331 329 32 33 347 345 30 333 259 338 260 339 383 381 35 349 354 355
158 17 2 1 23 329 331 332 330 345 347 348 346 339 335 381 340 383 341 384 382 355 351 356 357
159 17 2 1 23 330 332 48 47 346 348 53 52 341 337 382 342 384 50 296 295 357 353 358 55
160 17 2 1 23 28 11 87 331 33 12 92 347 31 338 260 89 142 343 221 383 36 354 94 359
161 17 2 1 23 331 87 88 332 347 92 93 348 343 340 383 90 221 344 222 384 359 356 95 360
162 17 2 1 23 332 88 15 48 348 93 16 53 344 342 384 91 222 51 144 296 360 358 96 56
$EndElements
