$MeshFormat
2.2 0 8
$EndMeshFormat
$Nodes
490
1 -0.2886751346 -0.2886751346 -0.2886751346
2 -0.5773502692 -0.5773502692 -0.5773502692
3 -0.2886751346 -0.2886751346 0.2886751346
4 -0.5773502692 -0.5773502692 0.5773502692
5 -0.2886751346 0.2886751346 -0.2886751346
6 -0.5773502692 0.5773502692 -0.5773502692
7 -0.2886751346 0.2886751346 0.2886751346
8 -0.5773502692 0.5773502692 0.5773502692
9 0.2886751346 -0.2886751346 -0.2886751346
10 0.5773502692 -0.5773502692 -0.5773502692
11 0.2886751346 -0.2886751346 0.2886751346
12 0.5773502692 -0.5773502692 0.5773502692
13 0.2886751346 0.2886751346 -0.2886751346
14 0.5773502692 0.5773502692 -0.5773502692
15 0.2886751346 0.2886751346 0.2886751346
16 0.5773502692 0.5773502692 0.5773502692
17 9.33964933169662e-10 -0.3535533905996266 -0.3535533905996266
18 -0.1514527228408802 -0.3369436694412493 -0.3369436694412493
19 0.1514527236365168 -0.3369436692624341 -0.3369436692624341
20 1.867929866339324e-09 -0.7071067811992532 -0.7071067811992532
21 -0.3029054456817604 -0.6738873388824986 -0.6738873388824986
22 0.3029054472730336 -0.6738873385248683 -0.6738873385248683
23 9.33964933169662e-10 -0.3535533905996266 0.3535533905996266
24 -0.1514527228408802 -0.3369436694412493 0.3369436694412493
25 0.1514527236365168 -0.3369436692624341 0.3369436692624341
26 1.867929866339324e-09 -0.7071067811992532 0.7071067811992532
27 -0.3029054456817604 -0.6738873388824986 0.6738873388824986
28 0.3029054472730336 -0.6738873385248683 0.6738873385248683
29 9.33964933169662e-10 0.3535533905996266 -0.3535533905996266
30 -0.1514527228408802 0.3369436694412493 -0.3369436694412493
31 0.1514527236365168 0.3369436692624341 -0.3369436692624341
32 1.867929866339324e-09 0.7071067811992532 -0.7071067811992532
33 -0.3029054456817604 0.6738873388824986 -0.6738873388824986
34 0.3029054472730336 0.6738873385248683 -0.6738873385248683
35 9.33964933169662e-10 0.3535533905996266 0.3535533905996266
36 -0.1514527228408802 0.3369436694412493 0.3369436694412493
37 0.1514527236365168 0.3369436692624341 0.3369436692624341
38 1.867929866339324e-09 0.7071067811992532 0.7071067811992532
39 -0.3029054456817604 0.6738873388824986 0.6738873388824986
40 0.3029054472730336 0.6738873385248683 0.6738873385248683
41 -0.3535533905996266 9.33964933169662e-10 -0.3535533905996266
42 -0.3369436694412493 -0.1514527228408802 -0.3369436694412493
43 -0.3369436692624341 0.1514527236365168 -0.3369436692624341
44 -0.7071067811992532 1.867929866339324e-09 -0.7071067811992532
45 -0.6738873388824986 -0.3029054456817604 -0.6738873388824986
46 -0.6738873385248683 0.3029054472730336 -0.6738873385248683
47 -0.3535533905996266 9.33964933169662e-10 0.3535533905996266
48 -0.3369436694412493 -0.1514527228408802 0.3369436694412493
49 -0.3369436692624341 0.1514527236365168 0.3369436692624341
50 -0.7071067811992532 1.867929866339324e-09 0.7071067811992532
51 -0.6738873388824986 -0.3029054456817604 0.6738873388824986
52 -0.6738873385248683 0.3029054472730336 0.6738873385248683
53 0.3535533905996266 9.33964933169662e-10 -0.3535533905996266
54 0.3369436694412493 -0.1514527228408802 -0.3369436694412493
55 0.3369436692624341 0.1514527236365168 -0.3369436692624341
56 0.7071067811992532 1.867929866339324e-09 -0.7071067811992532
57 0.6738873388824986 -0.3029054456817604 -0.6738873388824986
58 0.6738873385248683 0.3029054472730336 -0.6738873385248683
59 0.3535533905996266 9.33964933169662e-10 0.3535533905996266
60 0.3369436694412493 -0.1514527228408802 0.3369436694412493
61 0.3369436692624341 0.1514527236365168 0.3369436692624341
62 0.7071067811992532 1.867929866339324e-09 0.7071067811992532
63 0.6738873388824986 -0.3029054456817604 0.6738873388824986
64 0.6738873385248683 0.3029054472730336 0.6738873385248683
65 -0.3535533905996266 -0.3535533905996266 9.33964933169662e-10
66 -0.3369436694412493 -0.3369436694412493 -0.1514527228408802
67 -0.3369436692624341 -0.3369436692624341 0.1514527236365168
68 -0.7071067811992532 -0.7071067811992532 1.867929866339324e-09
69 -0.6738873388824986 -0.6738873388824986 -0.3029054456817604
70 -0.6738873385248683 -0.6738873385248683 0.3029054472730336
71 -0.3535533905996266 0.3535533905996266 9.33964933169662e-10
72 -0.3369436694412493 0.3369436694412493 -0.1514527228408802
73 -0.3369436692624341 0.3369436692624341 0.1514527236365168
74 -0.7071067811992532 0.7071067811992532 1.867929866339324e-09
75 -0.6738873388824986 0.6738873388824986 -0.3029054456817604
76 -0.6738873385248683 0.6738873385248683 0.3029054472730336
77 0.3535533905996266 -0.3535533905996266 9.33964933169662e-10
78 0.3369436694412493 -0.3369436694412493 -0.1514527228408802
79 0.3369436692624341 -0.3369436692624341 0.1514527236365168
80 0.7071067811992532 -0.7071067811992532 1.867929866339324e-09
81 0.6738873388824986 -0.6738873388824986 -0.3029054456817604
82 0.6738873385248683 -0.6738873385248683 0.3029054472730336
83 0.3535533905996266 0.3535533905996266 9.33964933169662e-10
84 0.3369436694412493 0.3369436694412493 -0.1514527228408802
85 0.3369436692624341 0.3369436692624341 0.1514527236365168
86 0.7071067811992532 0.7071067811992532 1.867929866339324e-09
87 0.6738873388824986 0.6738873388824986 -0.3029054456817604
88 0.6738873385248683 0.6738873385248683 0.3029054472730336
89 -0.4330127018996873 -0.4330127018996873 -0.4330127018996873
90 -0.3608439182498974 -0.3608439182498974 -0.3608439182498974
91 -0.5051814855498212 -0.5051814855498212 -0.5051814855498212
92 -0.4330127018996873 -0.4330127018996873 0.4330127018996873
93 -0.3608439182498974 -0.3608439182498974 0.3608439182498974
94 -0.5051814855498212 -0.5051814855498212 0.5051814855498212
95 -0.4330127018996873 0.4330127018996873 -0.4330127018996873
96 -0.3608439182498974 0.3608439182498974 -0.3608439182498974
97 -0.5051814855498212 0.5051814855498212 -0.5051814855498212
98 -0.4330127018996873 0.4330127018996873 0.4330127018996873
99 -0.3608439182498974 0.3608439182498974 0.3608439182498974
100 -0.5051814855498212 0.5051814855498212 0.5051814855498212
101 0.4330127018996873 -0.4330127018996873 -0.4330127018996873
102 0.3608439182498974 -0.3608439182498974 -0.3608439182498974
103 0.5051814855498212 -0.5051814855498212 -0.5051814855498212
104 0.4330127018996873 -0.4330127018996873 0.4330127018996873
105 0.3608439182498974 -0.3608439182498974 0.3608439182498974
106 0.5051814855498212 -0.5051814855498212 0.5051814855498212
107 0.4330127018996873 0.4330127018996873 -0.4330127018996873
108 0.3608439182498974 0.3608439182498974 -0.3608439182498974
109 0.5051814855498212 0.5051814855498212 -0.5051814855498212
110 0.4330127018996873 0.4330127018996873 0.4330127018996873
111 0.3608439182498974 0.3608439182498974 0.3608439182498974
112 0.5051814855498212 0.5051814855498212 0.5051814855498212
113 -0.5000000000089844 4.740163761240446e-10 4.740163761240446e-10
114 -0.4620177438321471 4.614568402017127e-10 -0.1911533530787176
115 -0.4620177442027202 -0.1911533521830421 5.559721705579365e-10
116 -0.4294698952279842 -0.1810464152318884 -0.1810464156881633
117 -0.4620177441041455 0.1911533524212973 3.405233934995294e-10
118 -0.4294698950842423 0.1810464154819214 -0.1810464157791083
119 -0.4620177439811654 8.242572283225063e-10 0.19115335271854
120 -0.4294698951738686 0.1810464155599464 0.181046415488476
121 -0.4294698952616263 -0.1810464152368892 0.1810464156033586
122 -1.000000000017969 9.426048382373994e-10 9.426048714035998e-10
123 -0.9238924795925596 2.471249912200597e-10 -0.382652173897195
124 -0.9238924793794451 -0.3826521744117482 6.086330162667768e-10
125 -0.8587335547318601 -0.3623373306667493 -0.3623373301480483
126 -0.9238924796469689 0.3826521737658268 4.098626819655685e-10
127 -0.8587335549685703 0.3623373300006472 -0.3623373302531511
128 -0.9238924794483286 9.710626034353547e-10 0.3826521742454329
129 -0.8587335549459689 0.3623373301952909 0.3623373301120722
130 -0.8587335548027291 -0.362337330210299 0.3623373304365403
131 -0.5303300858990569 1.400947399753481e-09 -0.5303300858990569
132 -0.4419417382493416 1.167456138705996e-09 -0.4419417382493416
133 -0.4816713938995197 -0.2165063502484214 -0.4816713938995197
134 -0.4093075316704121 -0.183979536544678 -0.4093075316704121
135 -0.4816713938993603 0.2165063516505361 -0.4816713938993603
136 -0.4093075315809248 0.1839795376435538 -0.4093075315809248
137 -0.618718433549155 1.63443871631313e-09 -0.618718433549155
138 -0.5777793662121027 0.2597058994617735 -0.5777793662121027
139 -0.5777793663909246 -0.2597058979654039 -0.5777793663909246
140 -0.5303300858990569 0.5303300858990569 1.400947399753481e-09
141 -0.4419417382493416 0.4419417382493416 1.167456138705996e-09
142 -0.4816713938995197 0.4816713938995197 -0.2165063502484214
143 -0.4093075316704121 0.4093075316704121 -0.183979536544678
144 -0.4816713938993603 0.4816713938993603 0.2165063516505361
145 -0.4093075315809248 0.4093075315809248 0.1839795376435538
146 -0.618718433549155 0.618718433549155 1.63443871631313e-09
147 -0.5777793662121027 0.5777793662121027 0.2597058994617735
148 -0.5777793663909246 0.5777793663909246 -0.2597058979654039
149 -0.5303300858990569 1.400947399753481e-09 0.5303300858990569
150 -0.4419417382493416 1.167456138705996e-09 0.4419417382493416
151 -0.4816713938995197 -0.2165063502484214 0.4816713938995197
152 -0.4093075316704121 -0.183979536544678 0.4093075316704121
153 -0.4816713938993603 0.2165063516505361 0.4816713938993603
154 -0.4093075315809248 0.1839795376435538 0.4093075315809248
155 -0.618718433549155 1.63443871631313e-09 0.618718433549155
156 -0.5777793662121027 0.2597058994617735 0.5777793662121027
157 -0.5777793663909246 -0.2597058979654039 0.5777793663909246
158 -0.5303300858990569 -0.5303300858990569 1.400947399753481e-09
159 -0.4419417382493416 -0.4419417382493416 1.167456138705996e-09
160 -0.4816713938995197 -0.4816713938995197 -0.2165063502484214
161 -0.4093075316704121 -0.4093075316704121 -0.183979536544678
162 -0.4816713938993603 -0.4816713938993603 0.2165063516505361
163 -0.4093075315809248 -0.4093075315809248 0.1839795376435538
164 -0.618718433549155 -0.618718433549155 1.63443871631313e-09
165 -0.5777793662121027 -0.5777793662121027 0.2597058994617735
166 -0.5777793663909246 -0.5777793663909246 -0.2597058979654039
167 0.5000000000089844 4.740163761240446e-10 4.740163761240446e-10
168 0.4620177438321471 4.614568402017127e-10 -0.1911533530787176
169 0.4620177442027202 -0.1911533521830421 5.559721705579365e-10
170 0.4294698952279842 -0.1810464152318884 -0.1810464156881633
171 0.4620177441041455 0.1911533524212973 3.405233934995294e-10
172 0.4294698950842423 0.1810464154819214 -0.1810464157791083
173 0.4620177439811654 8.242572283225063e-10 0.19115335271854
174 0.4294698951738686 0.1810464155599464 0.181046415488476
175 0.4294698952616263 -0.1810464152368892 0.1810464156033586
176 1.000000000017969 9.426048382373994e-10 9.426048714035998e-10
177 0.9238924795925596 2.471249912200597e-10 -0.382652173897195
178 0.9238924793794451 -0.3826521744117482 6.086330162667768e-10
179 0.8587335547318601 -0.3623373306667493 -0.3623373301480483
180 0.9238924796469689 0.3826521737658268 4.098626819655685e-10
181 0.8587335549685703 0.3623373300006472 -0.3623373302531511
182 0.9238924794483286 9.710626034353547e-10 0.3826521742454329
183 0.8587335549459689 0.3623373301952909 0.3623373301120722
184 0.8587335548027291 -0.362337330210299 0.3623373304365403
185 0.5303300858990569 1.400947399753481e-09 -0.5303300858990569
186 0.4419417382493416 1.167456138705996e-09 -0.4419417382493416
187 0.4816713938995197 -0.2165063502484214 -0.4816713938995197
188 0.4093075316704121 -0.183979536544678 -0.4093075316704121
189 0.4816713938993603 0.2165063516505361 -0.4816713938993603
190 0.4093075315809248 0.1839795376435538 -0.4093075315809248
191 0.618718433549155 1.63443871631313e-09 -0.618718433549155
192 0.5777793662121027 0.2597058994617735 -0.5777793662121027
193 0.5777793663909246 -0.2597058979654039 -0.5777793663909246
194 0.5303300858990569 0.5303300858990569 1.400947399753481e-09
195 0.4419417382493416 0.4419417382493416 1.167456138705996e-09
196 0.4816713938995197 0.4816713938995197 -0.2165063502484214
197 0.4093075316704121 0.4093075316704121 -0.183979536544678
198 0.4816713938993603 0.4816713938993603 0.2165063516505361
199 0.4093075315809248 0.4093075315809248 0.1839795376435538
200 0.618718433549155 0.618718433549155 1.63443871631313e-09
201 0.5777793662121027 0.5777793662121027 0.2597058994617735
202 0.5777793663909246 0.5777793663909246 -0.2597058979654039
203 0.5303300858990569 1.400947399753481e-09 0.5303300858990569
204 0.4419417382493416 1.167456138705996e-09 0.4419417382493416
205 0.4816713938995197 -0.2165063502484214 0.4816713938995197
206 0.4093075316704121 -0.183979536544678 0.4093075316704121
207 0.4816713938993603 0.2165063516505361 0.4816713938993603
208 0.4093075315809248 0.1839795376435538 0.4093075315809248
209 0.618718433549155 1.63443871631313e-09 0.618718433549155
210 0.5777793662121027 0.2597058994617735 0.5777793662121027
211 0.5777793663909246 -0.2597058979654039 0.5777793663909246
212 0.5303300858990569 -0.5303300858990569 1.400947399753481e-09
213 0.4419417382493416 -0.4419417382493416 1.167456138705996e-09
214 0.4816713938995197 -0.4816713938995197 -0.2165063502484214
215 0.4093075316704121 -0.4093075316704121 -0.183979536544678
216 0.4816713938993603 -0.4816713938993603 0.2165063516505361
217 0.4093075315809248 -0.4093075315809248 0.1839795376435538
218 0.618718433549155 -0.618718433549155 1.63443871631313e-09
219 0.5777793662121027 -0.5777793662121027 0.2597058994617735
220 0.5777793663909246 -0.5777793663909246 -0.2597058979654039
221 3.188704629853451e-10 -0.5000000000089844 3.188704629853451e-10
222 -1.027011337306822e-10 -0.4619397662080962 -0.191341716320811
223 -0.203438265785181 -0.4567415812287101 6.274228804727517e-10
224 -0.1872875535205627 -0.4267299871412457 -0.1811764067965225
225 0.2034382659298343 -0.4567415811642797 6.605341432964198e-10
226 0.1872875533056195 -0.4267299872311792 -0.1811764068068928
227 3.546061021210002e-10 -0.4619397660152526 0.1913417167863768
228 0.1872875534045394 -0.4267299869744633 0.1811764073092865
229 -0.1872875532037105 -0.4267299870229874 0.1811764074025995
230 7.909137818528186e-10 -1.000000000017969 7.909137818528186e-10
231 9.754403698671121e-10 -0.9238795323972923 -0.3826834326872512
232 -0.4040493807400019 -0.91473717425256 1.162827976130945e-09
233 -0.3732012190316615 -0.8541170993140036 -0.3622220738837595
234 0.4040493808812137 -0.9147371741901852 1.162828196645398e-09
235 0.3732012193899387 -0.8541170992974454 -0.3622220735536668
236 8.859913969628875e-10 -0.923879532822692 0.3826834316602455
237 0.3732012190485111 -0.8541170994658589 0.3622220735083255
238 -0.3732012188060004 -0.8541170994019903 0.3622220739087883
239 1.400947399753481e-09 -0.5303300858990569 -0.5303300858990569
240 1.167456138705996e-09 -0.4419417382493416 -0.4419417382493416
241 -0.2165063502484214 -0.4816713938995197 -0.4816713938995197
242 -0.183979536544678 -0.4093075316704121 -0.4093075316704121
243 0.2165063516504013 -0.4816713938992715 -0.4816713938992715
244 0.1839795376434863 -0.4093075315808805 -0.4093075315808805
245 1.63443871631313e-09 -0.618718433549155 -0.618718433549155
246 0.2597058994617061 -0.5777793662120583 -0.5777793662120583
247 -0.2597058979654039 -0.5777793663909246 -0.5777793663909246
248 1.400947399753481e-09 -0.5303300858990569 0.5303300858990569
249 1.167456138705996e-09 -0.4419417382493416 0.4419417382493416
250 -0.2165063502484214 -0.4816713938995197 0.4816713938995197
251 -0.183979536544678 -0.4093075316704121 0.4093075316704121
252 0.2165063516504013 -0.4816713938992715 0.4816713938992715
253 0.1839795376434863 -0.4093075315808805 0.4093075315808805
254 1.63443871631313e-09 -0.618718433549155 0.618718433549155
255 0.2597058994617061 -0.5777793662120583 0.5777793662120583
256 -0.2597058979654039 -0.5777793663909246 0.5777793663909246
257 3.188704629853451e-10 0.5000000000089844 3.188704629853451e-10
258 -1.027011337306822e-10 0.4619397662080962 -0.191341716320811
259 -0.203438265785181 0.4567415812287101 6.274228804727517e-10
260 -0.1872875535205627 0.4267299871412457 -0.1811764067965225
261 0.2034382659298343 0.4567415811642797 6.605341432964198e-10
262 0.1872875533056195 0.4267299872311792 -0.1811764068068928
263 3.546061021210002e-10 0.4619397660152526 0.1913417167863768
264 0.1872875534045394 0.4267299869744633 0.1811764073092865
265 -0.1872875532037105 0.4267299870229874 0.1811764074025995
266 7.909137818528186e-10 1.000000000017969 7.909137818528186e-10
267 9.754403698671121e-10 0.9238795323972923 -0.3826834326872512
268 -0.4040493807400019 0.91473717425256 1.162827976130945e-09
269 -0.3732012190316615 0.8541170993140036 -0.3622220738837595
270 0.4040493808812137 0.9147371741901852 1.162828196645398e-09
271 0.3732012193899387 0.8541170992974454 -0.3622220735536668
272 8.859913969628875e-10 0.923879532822692 0.3826834316602455
273 0.3732012190485111 0.8541170994658589 0.3622220735083255
274 -0.3732012188060004 0.8541170994019903 0.3622220739087883
275 1.400947399753481e-09 0.5303300858990569 -0.5303300858990569
276 1.167456138705996e-09 0.4419417382493416 -0.4419417382493416
277 -0.2165063502484214 0.4816713938995197 -0.4816713938995197
278 -0.183979536544678 0.4093075316704121 -0.4093075316704121
279 0.2165063516504013 0.4816713938992715 -0.4816713938992715
280 0.1839795376434863 0.4093075315808805 -0.4093075315808805
281 1.63443871631313e-09 0.618718433549155 -0.618718433549155
282 0.2597058994617061 0.5777793662120583 -0.5777793662120583
283 -0.2597058979654039 0.5777793663909246 -0.5777793663909246
284 1.400947399753481e-09 0.5303300858990569 0.5303300858990569
285 1.167456138705996e-09 0.4419417382493416 0.4419417382493416
286 -0.2165063502484214 0.4816713938995197 0.4816713938995197
287 -0.183979536544678 0.4093075316704121 0.4093075316704121
288 0.2165063516504013 0.4816713938992715 0.4816713938992715
289 0.1839795376434863 0.4093075315808805 0.4093075315808805
290 1.63443871631313e-09 0.618718433549155 0.618718433549155
291 0.2597058994617061 0.5777793662120583 0.5777793662120583
292 -0.2597058979654039 0.5777793663909246 0.5777793663909246
293 4.281844682394553e-10 4.281844682394553e-10 -0.5000000000089844
294 6.490777933001427e-10 -0.191341716362361 -0.4619397661908857
295 -0.2034382657596555 7.780441957954258e-10 -0.4567415812400795
296 -0.1872875532379476 -0.1811764068200361 -0.4267299872552995
297 0.2034382660207062 7.045887331905473e-10 -0.4567415811238043
298 0.1872875536969895 -0.1811764067455363 -0.4267299870854609
299 3.817770707308234e-10 0.1913417158808696 -0.461939766390326
300 0.1872875533593915 0.181176406862499 -0.4267299871839706
301 -0.187287553250485 0.1811764069641551 -0.4267299871886085
302 8.827781204690851e-10 8.827781204690851e-10 -1.000000000017969
303 7.780464080498133e-10 -0.3826834325396345 -0.923879532458437
304 -0.4040493800683886 1.725028287127028e-09 -0.9147371745492189
305 -0.3732012189031406 -0.3622220734665307 -0.8541170995471024
306 0.4040493807706483 1.138844581508814e-09 -0.9147371742390231
307 0.3732012192667459 -0.3622220735531532 -0.8541170993514915
308 7.605426801736848e-10 0.3826834324250287 -0.9238795325059084
309 0.3732012190025241 0.3622220741341146 -0.854117099220562
310 -0.3732012186518238 0.3622220741967072 -0.8541170993472534
311 4.281844682394553e-10 4.281844682394553e-10 0.5000000000089844
312 6.490777933001427e-10 -0.191341716362361 0.4619397661908857
313 -0.2034382657596555 7.780441957954258e-10 0.4567415812400795
314 -0.1872875532379476 -0.1811764068200361 0.4267299872552995
315 0.2034382660207062 7.045887331905473e-10 0.4567415811238043
316 0.1872875536969895 -0.1811764067455363 0.4267299870854609
317 3.817770707308234e-10 0.1913417158808696 0.461939766390326
318 0.1872875533593915 0.181176406862499 0.4267299871839706
319 -0.187287553250485 0.1811764069641551 0.4267299871886085
320 8.827781204690851e-10 8.827781204690851e-10 1.000000000017969
321 7.780464080498133e-10 -0.3826834325396345 0.923879532458437
322 -0.4040493800683886 1.725028287127028e-09 0.9147371745492189
323 -0.3732012189031406 -0.3622220734665307 0.8541170995471024
324 0.4040493807706483 1.138844581508814e-09 0.9147371742390231
325 0.3732012192667459 -0.3622220735531532 0.8541170993514915
326 7.605426801736848e-10 0.3826834324250287 0.9238795325059084
327 0.3732012190025241 0.3622220741341146 0.854117099220562
328 -0.3732012186518238 0.3622220741967072 0.8541170993472534
329 -0.7500000000130234 7.083105544584776e-10 7.083106473689049e-10
330 -0.6250000000110039 5.911634652912611e-10 5.911635117464748e-10
331 -0.6401650429560402 0.2651650433036837 1.054629023561193e-09
332 -0.6401650429560402 1.054628977105979e-09 0.2651650433036838
333 -0.5510913935300927 0.2281591978624904 6.975761946525735e-10
334 -0.5510913934686027 9.394430888364552e-10 0.2281591980111118
335 -0.5609182184276943 0.240835697477104 0.2408356974771041
336 -0.4951940568007955 0.2109410565185392 0.210941056482804
337 -0.875000000015496 8.254576963479385e-10 8.254577593862524e-10
338 -0.7820287613015044 0.3239086085347552 7.322458943967443e-10
339 -0.7820287612021843 1.012845831904031e-09 0.3239086087745583
340 -0.7098258866868256 0.3015865138361914 0.3015865137945823
341 -0.6401650429560402 1.054628977105979e-09 -0.2651650425953732
342 -0.5510913933940935 7.580428947760583e-10 -0.2281591978370453
343 -0.560918218427774 0.2408356974771837 -0.2408356964218914
344 -0.4951940567560225 0.2109410564795666 -0.2109410561005137
345 -0.7820287612742998 6.508770257963829e-10 -0.3239086082462841
346 -0.7098258866981297 0.301586513738873 -0.3015865133376776
347 -0.6401650429560402 -0.2651650425953732 1.054629023561193e-09
348 -0.5510913935793801 -0.2281591973892076 8.05300583181777e-10
349 -0.560918218427774 -0.2408356964218914 0.2408356974771838
350 -0.4951940568447143 -0.2109410558294042 0.2109410565402853
351 -0.7820287611677426 -0.3239086085035607 8.316310615473484e-10
352 -0.7098258866152092 -0.3015865133162515 0.3015865139568196
353 -0.5609182184278537 -0.2408356964219711 -0.2408356964219711
354 -0.4951940568279333 -0.2109410558269438 -0.2109410560550812
355 -0.709825886579778 -0.3015865135444801 -0.3015865132851295
356 0.7500000000130234 7.083106307858048e-10 7.083105155304266e-10
357 0.6250000000110039 5.911635034549247e-10 5.911634458272356e-10
358 0.6401650429560402 1.054629015269643e-09 -0.2651650425953732
359 0.6401650429560402 -0.2651650425953732 1.054628957641954e-09
360 0.5510913933940935 7.580429138578901e-10 -0.2281591978370453
361 0.5510913935793801 -0.2281591973892075 8.053005502221574e-10
362 0.5609182184278537 -0.2408356964219711 -0.2408356964219711
363 0.4951940568279332 -0.2109410558269438 -0.2109410560550812
364 0.875000000015496 8.254577345116021e-10 8.254576934670132e-10
365 0.7820287612742998 6.508770448782148e-10 -0.3239086082462841
366 0.7820287611677426 -0.3239086085035607 8.316310285877289e-10
367 0.7098258865797782 -0.3015865135444801 -0.3015865132851296
368 0.6401650429560402 0.2651650433036838 1.054628957641954e-09
369 0.5510913935300927 0.2281591978624905 6.975761616929539e-10
370 0.560918218427774 0.2408356974771837 -0.2408356964218914
371 0.4951940567560223 0.2109410564795667 -0.2109410561005139
372 0.7820287613015044 0.3239086085347552 7.322458614371246e-10
373 0.7098258866981297 0.301586513738873 -0.3015865133376777
374 0.6401650429560402 1.054629015269643e-09 0.2651650433036837
375 0.5510913934686027 9.394431079182869e-10 0.2281591980111118
376 0.560918218427774 -0.2408356964218913 0.2408356974771837
377 0.4951940568447143 -0.2109410558294041 0.2109410565402852
378 0.7820287612021843 1.012845850985862e-09 0.3239086087745583
379 0.7098258866152092 -0.3015865133162516 0.3015865139568196
380 0.5609182184276943 0.240835697477104 0.240835697477104
381 0.4951940568007956 0.2109410565185393 0.210941056482804
382 0.7098258866868256 0.3015865138361915 0.3015865137945822
383 5.548920990172665e-10 -0.7500000000130234 5.548920226899394e-10
384 4.368812810013058e-10 -0.6250000000110039 4.368812428376423e-10
385 9.77919749385374e-10 -0.6401650429560402 -0.2651650426720825
386 -0.2651650426720824 -0.6401650429560402 9.779197112217104e-10
387 4.37609293949558e-10 -0.5510524045820681 -0.2282533794964467
388 -0.2343016542286317 -0.548453312092375 8.026712819694433e-10
389 -0.2408356964603257 -0.5609182184278537 -0.2408356964603257
390 -0.2140616249904581 -0.493824102784564 -0.2110060516284381
391 6.729029404350425e-10 -0.875000000015496 6.729029022713789e-10
392 9.766801012596062e-10 -0.7820222876766662 -0.3239242376796668
393 -0.3346072117060421 -0.7774511086043 1.070373885309691e-09
394 -0.3070184577461135 -0.7075176588708498 -0.3015288851721626
395 0.2651650432269745 -0.6401650429560402 9.779197112217104e-10
396 0.2343016545784044 -0.5484533120601598 8.192269133812773e-10
397 0.2408356974387617 -0.5609182184277297 -0.2408356964602016
398 0.2140616253722046 -0.4938241028294686 -0.2110060516335612
399 0.3346072120540942 -0.7774511085731126 1.070373995566918e-09
400 0.307018458414308 -0.7075176588625449 -0.3015288850070905
401 9.77919749385374e-10 -0.6401650429560402 0.2651650432269745
402 6.662629118753993e-10 -0.5510524044856463 0.2282533800066756
403 -0.240835696460246 -0.560918218427774 0.2408356974388291
404 -0.2140616248319922 -0.493824102725395 0.2110060524207285
405 9.319556148074941e-10 -0.782022287889366 0.32392423744361
406 -0.3070184576332796 -0.7075176589148398 0.3015288856737665
407 0.240835697438682 -0.5609182184276499 0.240835697438705
408 0.2140616254216247 -0.4938241027010709 0.2110060523740099
409 0.3070184582435907 -0.7075176589467485 0.3015288854735093
410 5.548920782010906e-10 0.7500000000130234 5.548920990172665e-10
411 4.368812705932179e-10 0.6250000000110039 4.368812810013058e-10
412 0.2651650432269745 0.6401650429560402 9.77919749385374e-10
413 9.77919738977286e-10 0.6401650429560402 0.2651650432269745
414 0.2343016545784044 0.5484533120601598 8.192269324631091e-10
415 6.662629066713553e-10 0.5510524044856463 0.2282533800066756
416 0.240835697438682 0.5609182184276499 0.240835697438705
417 0.2140616254216247 0.4938241027010709 0.2110060523740098
418 6.729029300269546e-10 0.875000000015496 6.729029404350425e-10
419 0.3346072120540942 0.7774511085731126 1.070374014648749e-09
420 9.319556096034499e-10 0.782022287889366 0.3239242374436099
421 0.3070184582435907 0.7075176589467482 0.3015288854735093
422 9.77919738977286e-10 0.6401650429560402 -0.2651650426720824
423 4.376092887455141e-10 0.5510524045820681 -0.2282533794964466
424 0.2408356974387617 0.5609182184277296 -0.2408356964602016
425 0.2140616253722046 0.4938241028294685 -0.2110060516335612
426 9.766800960555624e-10 0.7820222876766662 -0.3239242376796668
427 0.3070184584143079 0.7075176588625451 -0.3015288850070905
428 -0.2651650426720824 0.6401650429560402 9.77919749385374e-10
429 -0.2343016542286317 0.548453312092375 8.02671301051275e-10
430 -0.240835696460246 0.560918218427774 0.2408356974388291
431 -0.2140616248319921 0.4938241027253949 0.2110060524207284
432 -0.3346072117060421 0.7774511086043 1.070373904391523e-09
433 -0.3070184576332795 0.70751765891484 0.3015288856737663
434 -0.2408356964603257 0.5609182184278537 -0.2408356964603257
435 -0.2140616249904582 0.493824102784564 -0.211006051628438
436 -0.3070184577461136 0.7075176588708497 -0.3015288851721625
437 6.554812486564863e-10 6.554812694726622e-10 -0.7500000000130234
438 5.418328584479708e-10 5.418328688560588e-10 -0.6250000000110039
439 0.2651650432772691 1.028214334613072e-09 -0.6401650429560402
440 1.028214324204984e-09 0.2651650432772691 -0.6401650429560402
441 0.2343016546489876 8.664015200240218e-10 -0.5484533120399221
442 7.049956835901158e-10 0.2282533795790693 -0.5510524046731829
443 0.2408356974638293 0.2408356974638523 -0.5609182184276499
444 0.2140616254116242 0.2110060521631897 -0.4938241028058245
445 7.691296845627857e-10 7.691296949708736e-10 -0.875000000015496
446 0.3346072120239587 1.083529499694306e-09 -0.7774511085975315
447 8.943785438226978e-10 0.3239242378511489 -0.7820222877309742
448 0.3070184582331708 0.3015288857989775 -0.7075176588240999
449 1.028214324204984e-09 -0.2651650426217879 -0.6401650429560402
450 8.386460448747755e-10 -0.2282533794920744 -0.5510524045734628
451 0.240835697463909 -0.2408356964350543 -0.5609182184277296
452 0.2140616255804632 -0.2110060515903093 -0.4938241027566094
453 9.03130407760762e-10 -0.3239242375807111 -0.7820222877072385
454 0.307018458365285 -0.3015288849942601 -0.7075176588895683
455 -0.2651650426217879 1.028214334613072e-09 -0.6401650429560402
456 -0.2343016541907216 9.031292513264611e-10 -0.5484533120980597
457 -0.2408356964350987 0.2408356974639764 -0.560918218427774
458 -0.2140616248428058 0.2110060522140798 -0.4938241028082055
459 -0.3346072113450882 1.376621352503413e-09 -0.7774511087526295
460 -0.3070184575436176 0.3015288858302995 -0.7075176588874713
461 -0.2408356964351784 -0.2408356964351784 -0.5609182184278537
462 -0.214061624836577 -0.2110060516276211 -0.4938241028415908
463 -0.3070184576692794 -0.3015288849509744 -0.7075176589873989
464 6.554812694726622e-10 6.554811931453351e-10 0.7500000000130234
465 5.418328688560588e-10 5.418328306923952e-10 0.6250000000110039
466 1.028214334613072e-09 -0.2651650426217879 0.6401650429560402
467 -0.2651650426217879 1.028214296449408e-09 0.6401650429560402
468 8.386460500788196e-10 -0.2282533794920743 0.5510524045734628
469 -0.2343016541907216 9.031292322446291e-10 0.5484533120980597
470 -0.2408356964351784 -0.2408356964351784 0.5609182184278537
471 -0.214061624836577 -0.2110060516276212 0.4938241028415907
472 7.691296949708736e-10 7.691296568072101e-10 0.875000000015496
473 9.031304129648059e-10 -0.3239242375807111 0.7820222877072385
474 -0.3346072113450882 1.376621333421582e-09 0.7774511087526295
475 -0.3070184576692795 -0.3015288849509744 0.707517658987399
476 0.2651650432772691 1.028214296449408e-09 0.6401650429560402
477 0.2343016546489876 8.664015009421898e-10 0.5484533120399221
478 0.240835697463909 -0.2408356964350543 0.5609182184277297
479 0.2140616255804633 -0.2110060515903093 0.4938241027566095
480 0.3346072120239587 1.083529480612475e-09 0.7774511085975315
481 0.3070184583652851 -0.3015288849942601 0.7075176588895682
482 1.028214334613072e-09 0.2651650432772691 0.6401650429560402
483 7.0499568879416e-10 0.2282533795790693 0.5510524046731829
484 -0.2408356964350987 0.2408356974639764 0.560918218427774
485 -0.2140616248428057 0.2110060522140798 0.4938241028082055
486 8.943785490267415e-10 0.3239242378511489 0.7820222877309742
487 -0.3070184575436176 0.3015288858302995 0.7075176588874713
488 0.2408356974638293 0.2408356974638523 0.5609182184276499
489 0.2140616254116243 0.2110060521631898 0.4938241028058245
490 0.3070184582331708 0.3015288857989775 0.7075176588240999
$EndNodes
$Elements
96
1 10 2 1 1 1 41 113 65 42 114 115 66 116
2 10 2 1 1 41 5 71 113 43 72 117 114 118
3 10 2 1 1 113 71 7 47 117 73 49 119 120
4 10 2 1 1 65 113 47 3 115 119 48 67 121
5 10 2 2 2 2 44 122 68 45 123 124 69 125
6 10 2 2 2 44 6 74 122 46 75 126 123 127
7 10 2 2 2 122 74 8 50 126 76 52 128 129
8 10 2 2 2 68 122 50 4 124 128 51 70 130
9 10 2 1 7 9 53 167 77 54 168 169 78 170
10 10 2 1 7 53 13 83 167 55 84 171 168 172
11 10 2 1 7 167 83 15 59 171 85 61 173 174
12 10 2 1 7 77 167 59 11 169 173 60 79 175
13 10 2 2 8 10 56 176 80 57 177 178 81 179
14 10 2 2 8 56 14 86 176 58 87 180 177 181
15 10 2 2 8 176 86 16 62 180 88 64 182 183
16 10 2 2 8 80 176 62 12 178 182 63 82 184
17 10 2 1 13 1 17 221 65 18 222 223 66 224
18 10 2 1 13 17 9 77 221 19 78 225 222 226
19 10 2 1 13 221 77 11 23 225 79 25 227 228
20 10 2 1 13 65 221 23 3 223 227 24 67 229
21 10 2 2 14 2 20 230 68 21 231 232 69 233
22 10 2 2 14 20 10 80 230 22 81 234 231 235
23 10 2 2 14 230 80 12 26 234 82 28 236 237
24 10 2 2 14 68 230 26 4 232 236 27 70 238
25 10 2 1 17 5 29 257 71 30 258 259 72 260
26 10 2 1 17 29 13 83 257 31 84 261 258 262
27 10 2 1 17 257 83 15 35 261 85 37 263 264
28 10 2 1 17 71 257 35 7 259 263 36 73 265
29 10 2 2 18 6 32 266 74 33 267 268 75 269
30 10 2 2 18 32 14 86 266 34 87 270 267 271
31 10 2 2 18 266 86 16 38 270 88 40 272 273
32 10 2 2 18 74 266 38 8 268 272 39 76 274
33 10 2 1 21 1 17 293 41 18 294 295 42 296
34 10 2 1 21 17 9 53 293 19 54 297 294 298
35 10 2 1 21 293 53 13 29 297 55 31 299 300
36 10 2 1 21 41 293 29 5 295 299 30 43 301
37 10 2 2 22 2 20 302 44 21 303 304 45 305
38 10 2 2 22 20 10 56 302 22 57 306 303 307
39 10 2 2 22 302 56 14 32 306 58 34 308 309
40 10 2 2 22 44 302 32 6 304 308 33 46 310
41 10 2 1 23 3 23 311 47 24 312 313 48 314
42 10 2 1 23 23 11 59 311 25 60 315 312 316
43 10 2 1 23 311 59 15 35 315 61 37 317 318
44 10 2 1 23 47 311 35 7 313 317 36 49 319
45 10 2 2 24 4 26 320 50 27 321 322 51 323
46 10 2 2 24 26 12 62 320 28 63 324 321 325
47 10 2 2 24 320 62 16 38 324 64 40 326 327
48 10 2 2 24 50 320 38 8 322 326 39 52 328
49 12 2 1 1 7 71 113 47 98 140 329 149 73 49 99 117 141 119 330 150 144 153 331 332 120 145 154 333 334 335 336
50 12 2 1 1 98 140 329 149 8 74 122 50 144 153 100 331 146 332 337 155 76 52 126 128 335 147 156 338 339 129 340
51 12 2 1 1 71 5 41 113 140 95 131 329 72 117 141 43 96 114 132 330 142 331 135 341 118 143 333 136 342 343 344
52 12 2 1 1 140 95 131 329 74 6 44 122 142 331 146 135 97 341 137 337 75 126 46 123 343 148 338 138 345 127 346
53 12 2 1 1 47 113 65 3 149 329 158 92 119 48 150 115 330 67 159 93 332 151 347 162 121 334 152 348 163 349 350
54 12 2 1 1 149 329 158 92 50 122 68 4 332 151 155 347 337 162 164 94 128 51 124 70 349 339 157 351 165 130 352
55 12 2 1 1 113 41 1 65 329 131 89 158 114 115 330 42 132 66 90 159 341 347 133 160 116 342 348 134 161 353 354
56 12 2 1 1 329 131 89 158 122 44 2 68 341 347 337 133 137 160 91 164 123 124 45 69 353 345 351 139 166 125 355
57 12 2 1 7 9 53 167 77 101 185 356 212 54 78 102 168 186 169 357 213 187 214 358 359 170 188 215 360 361 362 363
58 12 2 1 7 101 185 356 212 10 56 176 80 187 214 103 358 191 359 364 218 57 81 177 178 362 193 220 365 366 179 367
59 12 2 1 7 53 13 83 167 185 107 194 356 55 168 186 84 108 171 195 357 189 358 196 368 172 190 360 197 369 370 371
60 12 2 1 7 185 107 194 356 56 14 86 176 189 358 191 196 109 368 200 364 58 177 87 180 370 192 365 202 372 181 373
61 12 2 1 7 77 167 59 11 212 356 203 104 169 79 213 173 357 60 204 105 359 216 374 205 175 361 217 375 206 376 377
62 12 2 1 7 212 356 203 104 80 176 62 12 359 216 218 374 364 205 209 106 178 82 182 63 376 366 219 378 211 184 379
63 12 2 1 7 167 83 15 59 356 194 110 203 171 173 357 85 195 61 111 204 368 374 198 207 174 369 375 199 208 380 381
64 12 2 1 7 356 194 110 203 176 86 16 62 368 374 364 198 200 207 112 209 180 182 88 64 380 372 378 201 210 183 382
65 12 2 1 13 1 17 221 65 89 239 383 158 18 66 90 222 240 223 384 159 241 160 385 386 224 242 161 387 388 389 390
66 12 2 1 13 89 239 383 158 2 20 230 68 241 160 91 385 245 386 391 164 21 69 231 232 389 247 166 392 393 233 394
67 12 2 1 13 17 9 77 221 239 101 212 383 19 222 240 78 102 225 213 384 243 385 214 395 226 244 387 215 396 397 398
68 12 2 1 13 239 101 212 383 20 10 80 230 243 385 245 214 103 395 218 391 22 231 81 234 397 246 392 220 399 235 400
69 12 2 1 13 65 221 23 3 158 383 248 92 223 67 159 227 384 24 249 93 386 162 401 250 229 388 163 402 251 403 404
70 12 2 1 13 158 383 248 92 68 230 26 4 386 162 164 401 391 250 254 94 232 70 236 27 403 393 165 405 256 238 406
71 12 2 1 13 221 77 11 23 383 212 104 248 225 227 384 79 213 25 105 249 395 401 216 252 228 396 402 217 253 407 408
72 12 2 1 13 383 212 104 248 230 80 12 26 395 401 391 216 218 252 106 254 234 236 82 28 407 399 405 219 255 237 409
73 12 2 1 17 15 83 257 35 110 194 410 284 85 37 111 261 195 263 411 285 198 288 412 413 264 199 289 414 415 416 417
74 12 2 1 17 110 194 410 284 16 86 266 38 198 288 112 412 200 413 418 290 88 40 270 272 416 201 291 419 420 273 421
75 12 2 1 17 83 13 29 257 194 107 275 410 84 261 195 31 108 258 276 411 196 412 279 422 262 197 414 280 423 424 425
76 12 2 1 17 194 107 275 410 86 14 32 266 196 412 200 279 109 422 281 418 87 270 34 267 424 202 419 282 426 271 427
77 12 2 1 17 35 257 71 7 284 410 140 98 263 36 285 259 411 73 141 99 413 286 428 144 265 415 287 429 145 430 431
78 12 2 1 17 284 410 140 98 38 266 74 8 413 286 290 428 418 144 146 100 272 39 268 76 430 420 292 432 147 274 433
79 12 2 1 17 257 29 5 71 410 275 95 140 258 259 411 30 276 72 96 141 422 428 277 142 260 423 429 278 143 434 435
80 12 2 1 17 410 275 95 140 266 32 6 74 422 428 418 277 281 142 97 146 267 268 33 75 434 426 432 283 148 269 436
81 12 2 1 21 13 53 293 29 107 185 437 275 55 31 108 297 186 299 438 276 189 279 439 440 300 190 280 441 442 443 444
82 12 2 1 21 107 185 437 275 14 56 302 32 189 279 109 439 191 440 445 281 58 34 306 308 443 192 282 446 447 309 448
83 12 2 1 21 53 9 17 293 185 101 239 437 54 297 186 19 102 294 240 438 187 439 243 449 298 188 441 244 450 451 452
84 12 2 1 21 185 101 239 437 56 10 20 302 187 439 191 243 103 449 245 445 57 306 22 303 451 193 446 246 453 307 454
85 12 2 1 21 29 293 41 5 275 437 131 95 299 30 276 295 438 43 132 96 440 277 455 135 301 442 278 456 136 457 458
86 12 2 1 21 275 437 131 95 32 302 44 6 440 277 281 455 445 135 137 97 308 33 304 46 457 447 283 459 138 310 460
87 12 2 1 21 293 17 1 41 437 239 89 131 294 295 438 18 240 42 90 132 449 455 241 133 296 450 456 242 134 461 462
88 12 2 1 21 437 239 89 131 302 20 2 44 449 455 445 241 245 133 91 137 303 304 21 45 461 453 459 247 139 305 463
89 12 2 1 23 3 23 311 47 92 248 464 149 24 48 93 312 249 313 465 150 250 151 466 467 314 251 152 468 469 470 471
90 12 2 1 23 92 248 464 149 4 26 320 50 250 151 94 466 254 467 472 155 27 51 321 322 470 256 157 473 474 323 475
91 12 2 1 23 23 11 59 311 248 104 203 464 25 312 249 60 105 315 204 465 252 466 205 476 316 253 468 206 477 478 479
92 12 2 1 23 248 104 203 464 26 12 62 320 252 466 254 205 106 476 209 472 28 321 63 324 478 255 473 211 480 325 481
93 12 2 1 23 47 311 35 7 149 464 284 98 313 49 150 317 465 36 285 99 467 153 482 286 319 469 154 483 287 484 485
94 12 2 1 23 149 464 284 98 50 320 38 8 467 153 155 482 472 286 290 100 322 52 326 39 484 474 156 486 292 328 487
95 12 2 1 23 311 59 15 35 464 203 110 284 315 317 465 61 204 37 111 285 476 482 207 288 318 477 483 208 289 488 489
96 12 2 1 23 464 203 110 284 320 62 16 38 476 482 472 207 209 288 112 290 324 326 64 40 488 480 486 210 291 327 490
$EndElements
